<svg width="56" height="40" viewBox="0 0 56 40" fill="none" xmlns="http://www.w3.org/2000/svg">
<g clip-path="url(#clip0_926_740)">
<path d="M15.9747 21.5573L25.4765 1.04541C25.7029 0.558988 25.3477 0 24.813 0H12.7723C12.5791 0 12.3937 0.0764931 12.2571 0.21575L0.214483 12.3193C-0.127027 12.6625 -0.0509193 13.2353 0.3667 13.4765L14.9463 21.8849C15.3171 22.0987 15.7932 21.9476 15.9728 21.5573H15.9747Z" fill="white"/>
<path d="M40.025 21.5573L30.5232 1.04541C30.2969 0.558988 30.6501 0 31.1848 0H43.2255C43.4187 0 43.606 0.0764931 43.7426 0.21575L55.7853 12.3193C56.1268 12.6625 56.0507 13.2353 55.6331 13.4765L41.0535 21.8849C40.6827 22.0987 40.2065 21.9476 40.027 21.5573H40.025Z" fill="white"/>
<path d="M30.5918 38.1425L33.2751 24.3482C33.4292 23.5539 32.8243 22.8145 32.0183 22.8145H23.9996C23.1937 22.8145 22.5867 23.5539 22.7429 24.3482L25.4262 38.1425C25.6369 39.2212 26.5775 39.9999 27.6704 39.9999H28.3475C29.4423 39.9999 30.3829 39.2212 30.5918 38.1425Z" fill="white"/>
<path d="M28.8802 15.583H27.1355C26.3081 15.583 25.549 16.0518 25.1762 16.7951L23.8063 19.5195C23.4531 20.2216 23.9605 21.0513 24.743 21.0513H31.2747C32.0572 21.0513 32.5646 20.2216 32.2114 19.5195L30.8414 16.7951C30.4667 16.0518 29.7096 15.583 28.8821 15.583H28.8802Z" fill="white"/>
</g>
<defs>
<clipPath id="clip0_926_740">
<rect width="56" height="40" fill="white"/>
</clipPath>
</defs>
</svg>
