<svg width="670" height="753" viewBox="0 0 670 753" fill="none" xmlns="http://www.w3.org/2000/svg">
<rect width="752.37" height="670" transform="matrix(0 -1 -1 0 670 753)" fill="#67E8BC"/>
<g clip-path="url(#clip0_926_715)">
<rect width="1440" height="23" transform="matrix(0 -1 -1 0 669.63 753)" fill="#18181A"/>
<rect width="1440" height="22" transform="matrix(0 -1 -1 0 645.63 753)" fill="#18181A"/>
<rect width="1440" height="21" transform="matrix(0 -1 -1 0 621.63 753)" fill="#18181A"/>
<rect width="1440" height="20" transform="matrix(0 -1 -1 0 597.63 753)" fill="#18181A"/>
<rect width="1440" height="19" transform="matrix(0 -1 -1 0 573.63 753)" fill="#18181A"/>
<rect width="1440" height="18" transform="matrix(0 -1 -1 0 549.63 753)" fill="#18181A"/>
<rect width="1440" height="17" transform="matrix(0 -1 -1 0 525.63 753)" fill="#18181A"/>
<rect width="1440" height="16" transform="matrix(0 -1 -1 0 501.63 753)" fill="#18181A"/>
<rect width="1440" height="15" transform="matrix(0 -1 -1 0 477.63 753)" fill="#18181A"/>
<rect width="1440" height="14" transform="matrix(0 -1 -1 0 453.63 753)" fill="#18181A"/>
<rect width="1440" height="13" transform="matrix(0 -1 -1 0 429.63 753)" fill="#18181A"/>
<rect width="1440" height="12" transform="matrix(0 -1 -1 0 405.63 753)" fill="#18181A"/>
<rect width="1440" height="11" transform="matrix(0 -1 -1 0 381.63 753)" fill="#18181A"/>
<rect width="1440" height="10" transform="matrix(0 -1 -1 0 357.63 753)" fill="#18181A"/>
<rect width="1440" height="9" transform="matrix(0 -1 -1 0 333.63 753)" fill="#18181A"/>
<rect width="1440" height="8" transform="matrix(0 -1 -1 0 309.63 753)" fill="#18181A"/>
<rect width="1440" height="7" transform="matrix(0 -1 -1 0 285.63 753)" fill="#18181A"/>
<rect width="1440" height="6" transform="matrix(0 -1 -1 0 261.63 753)" fill="#18181A"/>
<rect width="1440" height="5" transform="matrix(0 -1 -1 0 237.63 753)" fill="#18181A"/>
<rect width="1440" height="4" transform="matrix(0 -1 -1 0 213.63 753)" fill="#18181A"/>
<rect width="1440" height="3" transform="matrix(0 -1 -1 0 189.63 753)" fill="#18181A"/>
<rect width="1440" height="2" transform="matrix(0 -1 -1 0 165.63 753)" fill="#18181A"/>
<rect width="1440" height="1" transform="matrix(0 -1 -1 0 141.63 753)" fill="#18181A"/>
</g>
<defs>
<clipPath id="clip0_926_715">
<rect width="752" height="529" fill="white" transform="matrix(0 -1 -1 0 669.63 753)"/>
</clipPath>
</defs>
</svg>
