<svg width="73" height="72" viewBox="0 0 73 72" fill="none" xmlns="http://www.w3.org/2000/svg">
<rect x="2.6665" y="2" width="68" height="68" rx="10" stroke="#67E8BC" stroke-width="4"/>
<path d="M53.3333 26V46C53.3333 46.9167 53.0069 47.7014 52.3542 48.3542C51.7014 49.0069 50.9167 49.3333 50 49.3333H23.3333C22.4167 49.3333 21.6319 49.0069 20.9792 48.3542C20.3264 47.7014 20 46.9167 20 46V26C20 25.0833 20.3264 24.2986 20.9792 23.6458C21.6319 22.993 22.4167 22.6667 23.3333 22.6667H50C50.9167 22.6667 51.7014 22.993 52.3542 23.6458C53.0069 24.2986 53.3333 25.0833 53.3333 26ZM23.3333 29.3333H50V26H23.3333V29.3333ZM23.3333 36V46H50V36H23.3333Z" fill="white" fill-opacity="0.9"/>
</svg>
