<svg width="36" height="36" viewBox="0 0 36 36" fill="none" xmlns="http://www.w3.org/2000/svg">
<path fill-rule="evenodd" clip-rule="evenodd" d="M18 32.1429C21.7509 32.1429 25.3482 30.6528 28.0005 28.0005C30.6528 25.3482 32.1429 21.7509 32.1429 18C32.1429 14.2491 30.6528 10.6518 28.0005 7.99949C25.3482 5.34719 21.7509 3.85714 18 3.85714C14.2491 3.85714 10.6518 5.34719 7.99949 7.99949C5.34719 10.6518 3.85714 14.2491 3.85714 18C3.85714 21.7509 5.34719 25.3482 7.99949 28.0005C10.6518 30.6528 14.2491 32.1429 18 32.1429ZM18 36C22.7739 36 27.3523 34.1036 30.7279 30.7279C34.1036 27.3523 36 22.7739 36 18C36 13.2261 34.1036 8.64773 30.7279 5.27208C27.3523 1.89642 22.7739 0 18 0C13.2261 0 8.64773 1.89642 5.27208 5.27208C1.89642 8.64773 0 13.2261 0 18C0 22.7739 1.89642 27.3523 5.27208 30.7279C8.64773 34.1036 13.2261 36 18 36Z" fill="#67E8BC"/>
</svg>
