<svg width="36" height="36" viewBox="0 0 36 36" fill="none" xmlns="http://www.w3.org/2000/svg">
<g clip-path="url(#clip0_325_1429)">
<path d="M1.18573 20.7832C0.447908 20.0449 0.0334473 19.0438 0.0334473 17.9999C0.0334473 16.9561 0.447908 15.955 1.18573 15.2167L15.2482 1.15194C15.6139 0.786271 16.048 0.496201 16.5257 0.298298C17.0034 0.100395 17.5155 -0.00146484 18.0326 -0.00146484C18.5497 -0.00146484 19.0618 0.100395 19.5395 0.298298C20.0173 0.496201 20.4513 0.786271 20.817 1.15194L34.8817 15.2144C35.2474 15.5801 35.5375 16.0142 35.7354 16.4919C35.9333 16.9697 36.0351 17.4817 36.0351 17.9988C36.0351 18.5159 35.9333 19.028 35.7354 19.5057C35.5375 19.9835 35.2474 20.4176 34.8817 20.7832L20.8192 34.8479C20.4536 35.2136 20.0195 35.5037 19.5418 35.7016C19.064 35.8995 18.552 36.0014 18.0349 36.0014C17.5177 36.0014 17.0057 35.8995 16.5279 35.7016C16.0502 35.5037 15.6161 35.2136 15.2505 34.8479L1.18573 20.7832ZM3.57073 17.6017C3.51835 17.6539 3.47679 17.716 3.44843 17.7844C3.42007 17.8527 3.40548 17.926 3.40548 17.9999C3.40548 18.0739 3.42007 18.1472 3.44843 18.2155C3.47679 18.2839 3.51835 18.3459 3.57073 18.3982L17.6355 32.4607C17.6877 32.5131 17.7498 32.5546 17.8181 32.583C17.8865 32.6114 17.9597 32.6259 18.0337 32.6259C18.1077 32.6259 18.181 32.6114 18.2493 32.583C18.3177 32.5546 18.3797 32.5131 18.432 32.4607L32.4945 18.3982C32.5469 18.3459 32.5884 18.2839 32.6168 18.2155C32.6451 18.1472 32.6597 18.0739 32.6597 17.9999C32.6597 17.926 32.6451 17.8527 32.6168 17.7844C32.5884 17.716 32.5469 17.6539 32.4945 17.6017L18.432 3.53919C18.3797 3.48681 18.3177 3.44525 18.2493 3.41689C18.181 3.38854 18.1077 3.37394 18.0337 3.37394C17.9597 3.37394 17.8865 3.38854 17.8181 3.41689C17.7498 3.44525 17.6877 3.48681 17.6355 3.53919L3.57298 17.6017H3.57073Z" fill="#67E8BC"/>
</g>
<defs>
<clipPath id="clip0_325_1429">
<rect width="36" height="36" fill="white"/>
</clipPath>
</defs>
</svg>
