<svg width="48" height="48" viewBox="0 0 48 48" fill="none" xmlns="http://www.w3.org/2000/svg">
<path d="M42.0481 23.2218L42.1579 23L42.0481 22.7782C40.341 19.3298 37.8701 16.5848 34.6414 14.5519C31.4106 12.5177 27.8598 11.5 24 11.5C20.1402 11.5 16.5894 12.5177 13.3586 14.5519C10.1299 16.5848 7.65904 19.3298 5.9519 22.7782L5.84209 23L5.9519 23.2218C7.65904 26.6702 10.1299 29.4152 13.3586 31.4481C16.5894 33.4823 20.1402 34.5 24 34.5C27.8598 34.5 31.4106 33.4823 34.6414 31.4481C37.8701 29.4152 40.341 26.6702 42.0481 23.2218ZM30.0214 29.0214C28.3663 30.6766 26.3689 31.5 24 31.5C21.6311 31.5 19.6337 30.6766 17.9786 29.0214C16.3234 27.3663 15.5 25.3689 15.5 23C15.5 20.6311 16.3234 18.6337 17.9786 16.9786C19.6337 15.3234 21.6311 14.5 24 14.5C26.3689 14.5 28.3663 15.3234 30.0214 16.9786C31.6766 18.6337 32.5 20.6311 32.5 23C32.5 25.3689 31.6766 27.3663 30.0214 29.0214ZM19.8214 27.1786C20.9663 28.3234 22.3689 28.9 24 28.9C25.6311 28.9 27.0337 28.3234 28.1786 27.1786C29.3234 26.0337 29.9 24.6311 29.9 23C29.9 21.3689 29.3234 19.9663 28.1786 18.8214C27.0337 17.6766 25.6311 17.1 24 17.1C22.3689 17.1 20.9663 17.6766 19.8214 18.8214C18.6766 19.9663 18.1 21.3689 18.1 23C18.1 24.6311 18.6766 26.0337 19.8214 27.1786ZM24 37.5C19.2328 37.5 14.8975 36.1714 10.9809 33.5114C7.11906 30.8885 4.3068 27.3887 2.53825 23C4.3068 18.6113 7.11906 15.1115 10.9809 12.4886C14.8975 9.82863 19.2328 8.5 24 8.5C28.7672 8.5 33.1025 9.82863 37.0191 12.4886C40.8809 15.1115 43.6932 18.6113 45.4618 23C43.6932 27.3887 40.8809 30.8885 37.0191 33.5114C33.1025 36.1714 28.7672 37.5 24 37.5Z" fill="#67E8BC" stroke="#18181A"/>
</svg>
