<svg width="64" height="64" viewBox="0 0 64 64" fill="none" xmlns="http://www.w3.org/2000/svg">
<path d="M22 48H42V52H22V48ZM26 56H38V60H26V56ZM32 4C26.6956 4 21.6086 6.10714 17.8578 9.85786C14.1071 13.6086 12 18.6957 12 24C11.8647 26.9067 12.4215 29.8039 13.6246 32.4534C14.8276 35.1029 16.6425 37.4289 18.92 39.24C20.92 41.1 22 42.16 22 44H26C26 40.32 23.78 38.26 21.62 36.28C19.7507 34.8485 18.2609 32.9806 17.2811 30.8397C16.3013 28.6988 15.8615 26.3503 16 24C16 19.7565 17.6857 15.6869 20.6863 12.6863C23.6868 9.68571 27.7565 8 32 8C36.2434 8 40.3131 9.68571 43.3137 12.6863C46.3143 15.6869 48 19.7565 48 24C48.1362 26.3521 47.6932 28.7017 46.7099 30.8427C45.7265 32.9837 44.2329 34.8507 42.36 36.28C40.22 38.28 38 40.28 38 44H42C42 42.16 43.06 41.1 45.08 39.22C47.3558 37.412 49.1699 35.0894 50.373 32.4434C51.576 29.7974 52.1336 26.9036 52 24C52 21.3736 51.4827 18.7728 50.4776 16.3463C49.4725 13.9198 47.9993 11.715 46.1421 9.85786C44.2849 8.00069 42.0801 6.5275 39.6536 5.52241C37.2271 4.51732 34.6264 4 32 4Z" fill="#67E8BC"/>
</svg>
