<svg width="73" height="72" viewBox="0 0 73 72" fill="none" xmlns="http://www.w3.org/2000/svg">
<rect x="2.6665" y="2" width="68" height="68" rx="10" stroke="#67E8BC" stroke-width="4"/>
<path d="M36.6667 43.4583C39.4167 41.2361 41.4931 39.0972 42.8958 37.0416C44.2986 34.9861 45 33.0555 45 31.25C45 29.6944 44.7153 28.368 44.1458 27.2708C43.5764 26.1736 42.875 25.2847 42.0417 24.6041C41.2083 23.9236 40.3056 23.4305 39.3333 23.125C38.3611 22.8194 37.4722 22.6666 36.6667 22.6666C35.8611 22.6666 34.9722 22.8194 34 23.125C33.0278 23.4305 32.125 23.9236 31.2917 24.6041C30.4583 25.2847 29.7569 26.1736 29.1875 27.2708C28.6181 28.368 28.3333 29.6944 28.3333 31.25C28.3333 33.0555 29.0347 34.9861 30.4375 37.0416C31.8403 39.0972 33.9167 41.2361 36.6667 43.4583ZM36.6667 47.6666C32.75 44.7778 29.8264 41.9722 27.8958 39.25C25.9653 36.5278 25 33.8611 25 31.25C25 29.2778 25.3542 27.5486 26.0625 26.0625C26.7708 24.5764 27.6806 23.3333 28.7917 22.3333C29.9028 21.3333 31.1528 20.5833 32.5417 20.0833C33.9306 19.5833 35.3056 19.3333 36.6667 19.3333C38.0278 19.3333 39.4028 19.5833 40.7917 20.0833C42.1806 20.5833 43.4306 21.3333 44.5417 22.3333C45.6528 23.3333 46.5625 24.5764 47.2708 26.0625C47.9792 27.5486 48.3333 29.2778 48.3333 31.25C48.3333 33.8611 47.3681 36.5278 45.4375 39.25C43.5069 41.9722 40.5833 44.7778 36.6667 47.6666ZM36.6667 34.3333C37.5833 34.3333 38.3681 34.0069 39.0208 33.3541C39.6736 32.7014 40 31.9166 40 31C40 30.0833 39.6736 29.2986 39.0208 28.6458C38.3681 27.993 37.5833 27.6666 36.6667 27.6666C35.75 27.6666 34.9653 27.993 34.3125 28.6458C33.6597 29.2986 33.3333 30.0833 33.3333 31C33.3333 31.9166 33.6597 32.7014 34.3125 33.3541C34.9653 34.0069 35.75 34.3333 36.6667 34.3333ZM25 52.6666V49.3333H48.3333V52.6666H25Z" fill="white" fill-opacity="0.9"/>
</svg>
