<svg width="64" height="64" viewBox="0 0 64 64" fill="none" xmlns="http://www.w3.org/2000/svg">
<path d="M19.4426 55.5306L5.33328 58.6666L8.46928 44.5572C6.40403 40.6943 5.32669 36.3803 5.33328 31.9999C5.33328 17.2719 17.2719 5.33325 31.9999 5.33325C46.7279 5.33325 58.6666 17.2719 58.6666 31.9999C58.6666 46.7279 46.7279 58.6666 31.9999 58.6666C27.6196 58.6732 23.3056 57.5958 19.4426 55.5306ZM20.2159 49.8959L21.9573 50.8293C25.0467 52.4803 28.497 53.3406 31.9999 53.3332C36.2193 53.3332 40.3439 52.0821 43.8521 49.7379C47.3604 47.3938 50.0947 44.062 51.7094 40.1638C53.324 36.2657 53.7465 31.9763 52.9234 27.838C52.1002 23.6997 50.0684 19.8985 47.0849 16.915C44.1014 13.9315 40.3001 11.8997 36.1619 11.0765C32.0236 10.2533 27.7342 10.6758 23.836 12.2905C19.9379 13.9052 16.6061 16.6395 14.2619 20.1478C11.9178 23.656 10.6666 27.7806 10.6666 31.9999C10.6666 35.5599 11.5333 38.9786 13.1733 42.0426L14.1039 43.7839L12.3573 51.6426L20.2159 49.8959Z" fill="#67E8BC"/>
</svg>
