<svg width="64" height="64" viewBox="0 0 64 64" fill="none" xmlns="http://www.w3.org/2000/svg">
<path d="M32 33.3334C29.5246 33.3334 27.1506 34.3167 25.4003 36.067C23.65 37.8174 22.6666 40.1914 22.6666 42.6667C22.6666 45.1421 23.65 47.516 25.4003 49.2664C27.1506 51.0167 29.5246 52 32 52C34.4753 52 36.8493 51.0167 38.5996 49.2664C40.35 47.516 41.3333 45.1421 41.3333 42.6667C41.3333 40.1914 40.35 37.8174 38.5996 36.067C36.8493 34.3167 34.4753 33.3334 32 33.3334ZM28 42.6667C28 41.6058 28.4214 40.5884 29.1715 39.8383C29.9217 39.0881 30.9391 38.6667 32 38.6667C33.0608 38.6667 34.0782 39.0881 34.8284 39.8383C35.5785 40.5884 36 41.6058 36 42.6667C36 43.7276 35.5785 44.745 34.8284 45.4951C34.0782 46.2453 33.0608 46.6667 32 46.6667C30.9391 46.6667 29.9217 46.2453 29.1715 45.4951C28.4214 44.745 28 43.7276 28 42.6667Z" fill="#67E8BC"/>
<path d="M46.736 13.6427L38.2587 1.75732L7.088 26.6587L5.36 26.64V26.6667H4V58.6667H60V26.6667H57.4347L52.3307 11.736L46.736 13.6427ZM51.8 26.6667H25.0587L44.976 19.8773L49.0347 18.5787L51.8 26.6667ZM41.4667 15.44L20.9067 22.448L37.1893 9.43999L41.4667 15.44ZM9.33333 48.4507V36.8773C10.4584 36.4787 11.4803 35.8339 12.3245 34.9901C13.1688 34.1464 13.814 33.1248 14.2133 32H49.7867C50.1858 33.1252 50.831 34.1472 51.6752 34.9914C52.5194 35.8357 53.5414 36.4809 54.6667 36.88V48.4533C53.5414 48.8524 52.5194 49.4976 51.6752 50.3419C50.831 51.1861 50.1858 52.2081 49.7867 53.3333H14.2187C13.8192 52.2071 13.1732 51.1844 12.3281 50.3396C11.4829 49.4949 10.4597 48.8496 9.33333 48.4507Z" fill="#67E8BC"/>
</svg>
