<svg width="30" height="30" viewBox="0 0 30 30" fill="none" xmlns="http://www.w3.org/2000/svg">
<path d="M23.3333 16.6667H16.6667V23.3333H13.3333V16.6667H6.66667V13.3333H13.3333V6.66667H16.6667V13.3333H23.3333M26.6667 0H3.33333C1.48333 0 0 1.48333 0 3.33333V26.6667C0 27.5507 0.351189 28.3986 0.976311 29.0237C1.60143 29.6488 2.44928 30 3.33333 30H26.6667C27.5507 30 28.3986 29.6488 29.0237 29.0237C29.6488 28.3986 30 27.5507 30 26.6667V3.33333C30 2.44928 29.6488 1.60143 29.0237 0.976311C28.3986 0.351189 27.5507 0 26.6667 0Z" fill="#67E8BC" fill-opacity="0.3"/>
</svg>
