<svg width="64" height="64" viewBox="0 0 64 64" fill="none" xmlns="http://www.w3.org/2000/svg">
<path d="M51.5124 43.7438C49.948 42.1782 48.1201 40.9003 46.1124 39.9688C48.9437 37.675 50.7499 34.175 50.7499 30.25C50.7499 23.325 44.9749 17.6438 38.0499 17.75C31.2312 17.8563 25.7374 23.4125 25.7374 30.25C25.7374 34.175 27.5499 37.675 30.3749 39.9688C28.3669 40.8996 26.5388 42.1776 24.9749 43.7438C21.5624 47.1625 19.6249 51.675 19.4999 56.4875C19.4982 56.5542 19.5099 56.6206 19.5343 56.6827C19.5587 56.7448 19.5953 56.8014 19.6419 56.8492C19.6885 56.8969 19.7441 56.9349 19.8056 56.9608C19.8671 56.9867 19.9332 57 19.9999 57H23.4999C23.7687 57 23.9937 56.7875 23.9999 56.5187C24.1187 52.8937 25.5874 49.5 28.1687 46.925C29.4895 45.5971 31.0607 44.5444 32.7911 43.8277C34.5216 43.1111 36.377 42.7448 38.2499 42.75C42.0562 42.75 45.6374 44.2313 48.3312 46.925C50.9062 49.5 52.3749 52.8937 52.4999 56.5187C52.5062 56.7875 52.7312 57 52.9999 57H56.4999C56.5666 57 56.6327 56.9867 56.6942 56.9608C56.7557 56.9349 56.8114 56.8969 56.858 56.8492C56.9046 56.8014 56.9411 56.7448 56.9655 56.6827C56.9899 56.6206 57.0016 56.5542 56.9999 56.4875C56.8749 51.675 54.9374 47.1625 51.5124 43.7438ZM38.2499 38.25C36.1124 38.25 34.0999 37.4188 32.5937 35.9063C31.8377 35.1563 31.2406 34.2617 30.838 33.276C30.4353 32.2902 30.2353 31.2335 30.2499 30.1688C30.2687 28.1188 31.0874 26.1375 32.5187 24.6688C34.0187 23.1313 36.0249 22.275 38.1687 22.25C40.2874 22.2313 42.3437 23.0563 43.8562 24.5375C45.4062 26.0563 46.2562 28.0875 46.2562 30.25C46.2562 32.3875 45.4249 34.3938 43.9124 35.9063C43.1704 36.6518 42.2878 37.2429 41.3159 37.6452C40.3439 38.0475 39.3018 38.2531 38.2499 38.25ZM22.5937 31.9C22.5374 31.3563 22.5062 30.8063 22.5062 30.25C22.5062 29.2563 22.5999 28.2875 22.7749 27.3438C22.8187 27.1188 22.6999 26.8875 22.4937 26.7938C21.6437 26.4125 20.8624 25.8875 20.1874 25.225C19.392 24.4538 18.7662 23.5253 18.3497 22.4986C17.9332 21.472 17.7353 20.3699 17.7687 19.2625C17.8249 17.2563 18.6312 15.35 20.0374 13.9125C21.5812 12.3313 23.6562 11.4688 25.8624 11.4938C27.8562 11.5125 29.7812 12.2813 31.2374 13.6438C31.7312 14.1063 32.1562 14.6188 32.5124 15.1688C32.6374 15.3625 32.8812 15.4438 33.0937 15.3688C34.1937 14.9875 35.3562 14.7188 36.5499 14.5938C36.8999 14.5563 37.0999 14.1813 36.9437 13.8688C34.9124 9.85 30.7624 7.075 25.9624 7C19.0312 6.89375 13.2562 12.575 13.2562 19.4938C13.2562 23.4188 15.0624 26.9188 17.8937 29.2125C15.9062 30.1313 14.0749 31.4 12.4874 32.9875C9.06241 36.4063 7.12491 40.9188 6.99991 45.7375C6.99824 45.8042 7.00994 45.8706 7.03432 45.9327C7.0587 45.9948 7.09527 46.0514 7.14186 46.0992C7.18846 46.1469 7.24415 46.1849 7.30564 46.2108C7.36713 46.2367 7.43319 46.25 7.49991 46.25H11.0062C11.2749 46.25 11.4999 46.0375 11.5062 45.7687C11.6249 42.1437 13.0937 38.75 15.6749 36.175C17.5124 34.3375 19.7624 33.0625 22.2187 32.4438C22.4624 32.3813 22.6249 32.15 22.5937 31.9Z" fill="#67E8BC"/>
</svg>
