<svg width="73" height="72" viewBox="0 0 73 72" fill="none" xmlns="http://www.w3.org/2000/svg">
<rect x="2.3335" y="2" width="68" height="68" rx="10" stroke="#67E8BC" stroke-width="4"/>
<path d="M30.3335 44C31.4335 44 32.3752 43.6083 33.1585 42.825C33.9418 42.0417 34.3335 41.1 34.3335 40C34.3335 38.9 33.9418 37.9583 33.1585 37.175C32.3752 36.3917 31.4335 36 30.3335 36C29.2335 36 28.2918 36.3917 27.5085 37.175C26.7252 37.9583 26.3335 38.9 26.3335 40C26.3335 41.1 26.7252 42.0417 27.5085 42.825C28.2918 43.6083 29.2335 44 30.3335 44ZM42.3335 44C43.4335 44 44.3752 43.6083 45.1585 42.825C45.9418 42.0417 46.3335 41.1 46.3335 40C46.3335 38.9 45.9418 37.9583 45.1585 37.175C44.3752 36.3917 43.4335 36 42.3335 36C41.2335 36 40.2918 36.3917 39.5085 37.175C38.7252 37.9583 38.3335 38.9 38.3335 40C38.3335 41.1 38.7252 42.0417 39.5085 42.825C40.2918 43.6083 41.2335 44 42.3335 44ZM36.3335 34C37.4335 34 38.3752 33.6083 39.1585 32.825C39.9418 32.0417 40.3335 31.1 40.3335 30C40.3335 28.9 39.9418 27.9583 39.1585 27.175C38.3752 26.3917 37.4335 26 36.3335 26C35.2335 26 34.2918 26.3917 33.5085 27.175C32.7252 27.9583 32.3335 28.9 32.3335 30C32.3335 31.1 32.7252 32.0417 33.5085 32.825C34.2918 33.6083 35.2335 34 36.3335 34ZM36.3335 56C33.5668 56 30.9668 55.475 28.5335 54.425C26.1002 53.375 23.9835 51.95 22.1835 50.15C20.3835 48.35 18.9585 46.2333 17.9085 43.8C16.8585 41.3667 16.3335 38.7667 16.3335 36C16.3335 33.2333 16.8585 30.6333 17.9085 28.2C18.9585 25.7667 20.3835 23.65 22.1835 21.85C23.9835 20.05 26.1002 18.625 28.5335 17.575C30.9668 16.525 33.5668 16 36.3335 16C39.1002 16 41.7002 16.525 44.1335 17.575C46.5668 18.625 48.6835 20.05 50.4835 21.85C52.2835 23.65 53.7085 25.7667 54.7585 28.2C55.8085 30.6333 56.3335 33.2333 56.3335 36C56.3335 38.7667 55.8085 41.3667 54.7585 43.8C53.7085 46.2333 52.2835 48.35 50.4835 50.15C48.6835 51.95 46.5668 53.375 44.1335 54.425C41.7002 55.475 39.1002 56 36.3335 56ZM36.3335 52C40.8002 52 44.5835 50.45 47.6835 47.35C50.7835 44.25 52.3335 40.4667 52.3335 36C52.3335 31.5333 50.7835 27.75 47.6835 24.65C44.5835 21.55 40.8002 20 36.3335 20C31.8668 20 28.0835 21.55 24.9835 24.65C21.8835 27.75 20.3335 31.5333 20.3335 36C20.3335 40.4667 21.8835 44.25 24.9835 47.35C28.0835 50.45 31.8668 52 36.3335 52Z" fill="white" fill-opacity="0.9"/>
</svg>
